<svg version="1.2" xmlns="http://www.w3.org/2000/svg" viewBox="0 0 200 90" width="200" height="90">
	<title>Nytt projekt</title>
	<style>
		.s0 { fill: #ffffff } 
	</style>
	<path id="Text layer 1" class="s0" aria-label="Emmas Webbplats"  d="m3.4 33.6l-0.9-30.8q0-0.5 0.1-0.8 0.1-0.3 0.5-0.5 0.4-0.2 1.1-0.3 0.7 0 1.9 0 0.4 0 0.7 0 0.3 0 0.6 0h8q0.5 0 0.8 0.1 0.3 0 0.4 0.3 0.2 0.2 0.2 0.6 0 0.3 0 0.9 0 0.6 0 1 0 0.4-0.2 0.7-0.1 0.2-0.4 0.2-0.3 0.1-0.8 0.1h-5.7l-0.3 12.3h4.8q0.5 0 0.8 0.1 0.3 0.1 0.4 0.3 0.2 0.2 0.2 0.6 0 0.3 0 0.9 0 0.6 0 1 0 0.3-0.2 0.5-0.1 0.2-0.4 0.3-0.3 0.1-0.8 0.1h-4.9l-0.3 10.1h5.7q0.5 0 0.8 0.1 0.3 0.1 0.4 0.3 0.1 0.2 0.2 0.5 0 0.4 0 0.9 0 0.6 0 0.9-0.1 0.4-0.2 0.6-0.1 0.2-0.4 0.3-0.3 0.1-0.8 0.1h-8-0.6q-0.9 0-1.4 0-0.6-0.1-0.9-0.2-0.2-0.2-0.3-0.4-0.1-0.3-0.1-0.8zm17.7 0.3l-0.6-21.5q0-0.4 0-0.7 0.1-0.3 0.4-0.5 0.4-0.1 1-0.2 0.6-0.1 1.6-0.1 1 0 1.6 0.1 0.6 0.1 0.9 0.2 0.4 0.2 0.4 0.5 0.1 0.3 0.1 0.7v1.2q0.6-0.6 1.1-1.1 0.6-0.6 1.3-1 0.7-0.4 1.4-0.6 0.8-0.2 1.7-0.2 1.7 0 3 0.8 1.4 0.9 2 2.4 0.6-0.7 1.2-1.2 0.7-0.6 1.4-1.1 0.7-0.4 1.5-0.7 0.8-0.2 1.7-0.2 1.2 0 2.3 0.4 1 0.5 1.8 1.3 0.7 0.9 1.1 2.1 0.5 1.2 0.4 2.7l-0.5 16.7q0 0.3-0.1 0.6-0.1 0.2-0.3 0.3-0.3 0.1-0.8 0.2-0.5 0-1.4 0-0.8 0-1.3 0-0.5-0.1-0.8-0.2-0.3-0.1-0.4-0.3-0.1-0.3-0.1-0.6l-0.4-16.1q-0.1-0.8-0.2-1.3-0.2-0.6-0.5-0.9-0.3-0.3-0.7-0.4-0.4-0.1-0.9-0.1-0.8 0-1.4 0.4-0.6 0.5-1 1.1v0.6l-0.5 16.7q0 0.3-0.1 0.6-0.1 0.2-0.3 0.3-0.3 0.1-0.8 0.2-0.5 0-1.4 0-0.8 0-1.3 0-0.5-0.1-0.8-0.2-0.3-0.1-0.4-0.3-0.1-0.3-0.1-0.6l-0.4-16.1q-0.1-0.8-0.2-1.3-0.2-0.6-0.5-0.9-0.3-0.3-0.8-0.4-0.4-0.1-0.8-0.1-0.8 0-1.4 0.4-0.6 0.4-1 1l-0.5 17.4q0 0.3-0.1 0.6-0.1 0.2-0.4 0.3-0.2 0.1-0.8 0.2-0.5 0-1.3 0-0.8 0-1.4 0-0.5-0.1-0.7-0.2-0.3-0.1-0.4-0.3-0.1-0.3-0.1-0.6zm32.4 0l-0.6-21.5q0-0.4 0.1-0.7 0.1-0.3 0.4-0.5 0.3-0.1 0.9-0.2 0.6-0.1 1.6-0.1 1 0 1.6 0.1 0.7 0.1 1 0.2 0.3 0.2 0.4 0.5 0.1 0.3 0.1 0.7l-0.1 1.2q0.6-0.6 1.2-1.1 0.6-0.6 1.2-1 0.7-0.4 1.5-0.6 0.7-0.2 1.6-0.2 1.7 0 3 0.8 1.4 0.9 2 2.4 0.6-0.7 1.2-1.2 0.7-0.6 1.4-1.1 0.7-0.4 1.5-0.7 0.8-0.2 1.7-0.2 1.3 0 2.3 0.4 1.1 0.5 1.8 1.3 0.8 0.9 1.2 2.1 0.4 1.2 0.3 2.7l-0.4 16.7q0 0.3-0.1 0.6-0.1 0.2-0.4 0.3-0.3 0.1-0.8 0.2-0.5 0-1.4 0-0.8 0-1.3 0-0.5-0.1-0.8-0.2-0.3-0.1-0.4-0.3-0.1-0.3-0.1-0.6l-0.4-16.1q0-0.8-0.2-1.3-0.2-0.6-0.5-0.9-0.3-0.3-0.7-0.4-0.4-0.1-0.9-0.1-0.8 0-1.4 0.4-0.6 0.5-1 1.1v0.6l-0.5 16.7q0 0.3-0.1 0.6-0.1 0.2-0.3 0.3-0.3 0.1-0.8 0.2-0.5 0-1.4 0-0.8 0-1.3 0-0.5-0.1-0.8-0.2-0.3-0.1-0.4-0.3-0.1-0.3-0.1-0.6l-0.4-16.1q-0.1-0.8-0.2-1.3-0.2-0.6-0.5-0.9-0.3-0.3-0.7-0.4-0.4-0.1-0.9-0.1-0.8 0-1.4 0.4-0.5 0.4-1 1l-0.5 17.4q0 0.3-0.1 0.6-0.1 0.2-0.3 0.3-0.3 0.1-0.8 0.2-0.5 0-1.4 0-0.8 0-1.3 0-0.5-0.1-0.8-0.2-0.3-0.1-0.4-0.3-0.1-0.3-0.1-0.6zm31.6-3.6l-0.1-1.1q0-1.1 0.5-2 0.5-0.8 1.3-1.5 0.8-0.6 1.8-1.1 1-0.4 2-0.8 1.2-0.4 2.7-0.7 1.4-0.3 2.7-0.5l-0.2-6.6q0-1.1-0.5-1.6-0.5-0.6-1.6-0.6-0.5 0-1 0.1-0.4 0.1-0.7 0.3-0.3 0.3-0.5 0.7-0.2 0.4-0.2 1.1l-0.1 4.5q0 0.4-0.2 0.6-0.1 0.2-0.4 0.3-0.3 0.2-0.9 0.2-0.6 0-1.6 0-0.9 0-1.4 0-0.6 0-0.9-0.2-0.3-0.1-0.4-0.3-0.1-0.2-0.1-0.6l-0.2-4.3q0-1 0.4-1.8 0.4-0.9 1.1-1.5 0.7-0.6 1.6-1 0.9-0.4 1.8-0.7 1-0.3 2-0.4 0.9-0.1 1.7-0.1 1.8 0 3.3 0.4 1.6 0.4 2.7 1.1 1.2 0.8 1.8 1.8 0.7 1.1 0.7 2.5l-0.6 17.4q-0.1 0.3-0.2 0.6 0 0.2-0.3 0.3-0.3 0.1-0.8 0.2-0.5 0-1.4 0-0.7 0-1.2 0-0.5-0.1-0.7-0.2-0.3-0.1-0.4-0.3-0.1-0.3-0.1-0.6v-0.7q-0.5 0.4-1.2 0.7-0.6 0.4-1.3 0.7-0.7 0.3-1.6 0.5-0.8 0.1-1.7 0.1-1.4 0-2.4-0.3-1.1-0.4-1.8-1.1-0.7-0.7-1.1-1.6-0.3-0.9-0.3-1.9zm5.4-1.4v0.8q0 0.6 0.2 1 0.2 0.4 0.5 0.7 0.3 0.3 0.7 0.4 0.4 0.1 0.9 0.1 1.2 0 2-0.4 0.8-0.3 1.4-0.8l-0.1-5.2q-1.1 0.2-1.9 0.4-0.8 0.3-1.5 0.5-1 0.5-1.6 1.1-0.6 0.5-0.6 1.4zm16.6 1.1v-0.8q0-0.4 0.1-0.6 0.1-0.3 0.4-0.4 0.3-0.2 0.8-0.2 0.6-0.1 1.5-0.1 0.9 0 1.4 0.1 0.5 0 0.8 0.2 0.3 0.1 0.4 0.4 0.1 0.2 0.1 0.6v1q0 1.2 0.7 1.7 0.8 0.5 2.1 0.5 1.3 0 1.8-0.6 0.5-0.5 0.5-1.8v-1q0-0.5-0.2-0.9-0.1-0.3-0.3-0.6-0.3-0.3-0.7-0.5-0.4-0.2-1-0.3l-5.9-2.1q-1.4-0.5-2.1-1.7-0.7-1.1-0.8-2.8l-0.1-3.5q0-1.6 0.7-2.7 0.7-1.1 1.9-1.8 1.2-0.7 2.8-1.1 1.6-0.3 3.3-0.3 1.6 0 3.1 0.3 1.6 0.3 2.8 0.9 1.2 0.7 1.8 1.7 0.7 1.1 0.7 2.7l-0.2 4.2q0 0.4-0.1 0.6-0.1 0.2-0.4 0.3-0.3 0.2-0.9 0.2-0.5 0-1.4 0-1 0-1.6 0-0.6 0-0.9-0.2-0.3-0.1-0.4-0.3-0.1-0.2-0.1-0.6l-0.2-4.5q0-0.7-0.2-1.1-0.1-0.4-0.4-0.7-0.3-0.2-0.7-0.3-0.4-0.1-0.9-0.1-0.5 0-0.9 0.1-0.4 0.1-0.7 0.3-0.3 0.3-0.5 0.7-0.2 0.4-0.2 1l-0.1 4.4q-0.1 1 0.4 1.6 0.4 0.6 1.5 1l5 1.8q1 0.3 1.7 0.8 0.6 0.4 1 0.9 0.4 0.6 0.6 1.3 0.1 0.7 0.1 1.7l-0.1 0.9q0 1.4-0.7 2.3-0.6 1-1.7 1.6-1.1 0.5-2.5 0.8-1.3 0.2-2.8 0.2-1.5 0-3-0.2-1.4-0.2-2.6-0.8-1.2-0.6-1.9-1.6-0.8-1-0.8-2.6zm-100.7 52.6l-5.3-30.8q-0.2-0.5 0-0.8 0.1-0.3 0.5-0.5 0.4-0.2 1.2-0.3 0.9 0 2.1 0 1.3 0 2 0 0.8 0.1 1.2 0.3 0.4 0.2 0.5 0.5 0.1 0.3 0.2 0.8l1.2 26.5h0.6l3.9-26.5q0.1-0.5 0.2-0.8 0.1-0.3 0.5-0.5 0.3-0.2 0.9-0.3 0.6 0 1.7 0 1.1 0 1.7 0 0.7 0.1 1 0.3 0.4 0.2 0.5 0.5 0.1 0.3 0.2 0.8l3.9 26.5h0.6l1.3-26.5q0-0.5 0.1-0.8 0.2-0.3 0.5-0.5 0.4-0.2 1.1-0.3 0.7 0 1.9 0 1.2 0 2 0 0.7 0.1 1.1 0.3 0.4 0.2 0.6 0.5 0.1 0.3 0 0.8l-5.3 30.8q-0.1 0.5-0.3 0.8-0.1 0.2-0.5 0.4-0.3 0.1-0.9 0.2-0.5 0-1.4 0-1.2 0-1.9 0-0.8-0.1-1.2-0.2-0.5-0.2-0.7-0.4-0.2-0.3-0.3-0.8l-3.8-22.5h-0.4l-3.8 22.5q-0.1 0.5-0.3 0.8-0.2 0.2-0.7 0.4-0.4 0.1-1.1 0.2-0.7 0-1.8 0-1 0-1.7 0-0.6-0.1-1-0.2-0.4-0.2-0.5-0.4-0.2-0.3-0.3-0.8zm31.6-4.1l-0.5-12.7q0-1.6 0.7-2.8 0.7-1.1 2-1.9 1.2-0.7 2.8-1 1.6-0.4 3.2-0.4 1.6 0 3.1 0.4 1.6 0.3 2.8 1 1.1 0.8 1.8 1.9 0.7 1.2 0.7 2.8l-0.3 7.4q-0.1 0.3-0.2 0.6-0.1 0.2-0.4 0.3-0.3 0.1-0.8 0.2-0.6 0-1.5 0h-7.8l-0.1 4.3q0 0.8 0.1 1.3 0.2 0.5 0.5 0.9 0.4 0.3 0.9 0.4 0.5 0.2 1.1 0.2 1.3 0 1.9-0.6 0.6-0.6 0.6-2v-0.6q0-0.4 0.1-0.6 0.1-0.3 0.4-0.4 0.3-0.2 0.8-0.2 0.6-0.1 1.5-0.1 0.9 0 1.4 0.1 0.5 0 0.8 0.2 0.3 0.1 0.4 0.4 0.1 0.2 0.1 0.6v0.9q0 1.5-0.7 2.5-0.7 1-1.8 1.6-1.1 0.6-2.5 0.8-1.5 0.2-3 0.2-1.5 0-2.9-0.2-1.5-0.3-2.6-1-1.1-0.7-1.8-1.8-0.7-1.1-0.8-2.7zm5.7-7.2h4.9l-0.2-5.9q0-0.8-0.2-1.3-0.2-0.5-0.5-0.8-0.2-0.3-0.6-0.4-0.4-0.1-0.9-0.1-0.5 0-0.9 0.1-0.4 0.1-0.7 0.4-0.3 0.3-0.5 0.8-0.2 0.5-0.2 1.3zm16.1 11.6l-0.6-31.9q0-0.4 0.1-0.7 0.1-0.3 0.4-0.5 0.3-0.1 1-0.2 0.6-0.1 1.7-0.1 1.1 0 1.7 0.1 0.7 0.1 1 0.2 0.4 0.2 0.5 0.5 0.1 0.3 0.1 0.7l-0.3 11q0.4-0.3 0.8-0.7 0.5-0.5 1.1-0.8 0.6-0.3 1.3-0.5 0.8-0.3 1.6-0.3 1.5 0 2.6 0.5 1.1 0.5 1.9 1.4 0.9 0.9 1.3 2.1 0.4 1.2 0.4 2.7l-0.4 11.2q-0.1 1.8-0.5 3.1-0.4 1.3-1.1 2.1-0.8 0.8-1.8 1.1-1.1 0.4-2.3 0.4-1 0-1.8-0.2-0.8-0.2-1.5-0.5-0.6-0.3-1.2-0.7-0.5-0.4-1-0.8v0.8q0 0.4-0.1 0.6 0 0.2-0.3 0.3-0.3 0.2-0.7 0.2-0.5 0-1.3 0-0.8 0-1.3 0-0.5 0-0.8-0.2-0.3-0.1-0.4-0.3-0.1-0.2-0.1-0.6zm5.6-18l-0.3 14.8q0.5 0.4 1.1 0.7 0.7 0.3 1.6 0.3 1.2 0 2-0.8 0.7-0.8 0.7-2.3l-0.3-11.2q-0.1-0.7-0.3-1.2-0.1-0.5-0.5-0.8-0.3-0.3-0.7-0.4-0.4-0.1-0.8-0.1-0.7 0-1.4 0.3-0.6 0.3-1.1 0.7zm16.4 18l-0.6-31.9q0-0.4 0.1-0.7 0.1-0.3 0.4-0.5 0.4-0.1 1-0.2 0.7-0.1 1.7-0.1 1.1 0 1.8 0.1 0.6 0.1 1 0.2 0.3 0.2 0.4 0.5 0.1 0.3 0.1 0.7l-0.2 11q0.3-0.3 0.8-0.7 0.4-0.5 1-0.8 0.6-0.3 1.4-0.5 0.7-0.3 1.6-0.3 1.4 0 2.5 0.5 1.2 0.5 2 1.4 0.8 0.9 1.2 2.1 0.4 1.2 0.4 2.7l-0.4 11.2q0 1.8-0.5 3.1-0.4 1.3-1.1 2.1-0.7 0.8-1.8 1.1-1 0.4-2.3 0.4-1 0-1.8-0.2-0.8-0.2-1.4-0.5-0.7-0.3-1.3-0.7-0.5-0.4-0.9-0.8v0.8q0 0.4-0.1 0.6-0.1 0.2-0.4 0.3-0.2 0.2-0.7 0.2-0.5 0-1.3 0-0.8 0-1.3 0-0.5 0-0.8-0.2-0.3-0.1-0.4-0.3-0.1-0.2-0.1-0.6zm5.6-18l-0.3 14.8q0.5 0.4 1.2 0.7 0.6 0.3 1.5 0.3 1.3 0 2-0.8 0.7-0.8 0.7-2.3l-0.3-11.2q0-0.7-0.2-1.2-0.2-0.5-0.5-0.8-0.3-0.3-0.7-0.4-0.4-0.1-0.9-0.1-0.7 0-1.4 0.3-0.6 0.3-1.1 0.7zm16.3 26.4l-0.7-29.9q0-0.4 0.1-0.7 0.1-0.3 0.4-0.4 0.3-0.2 0.9-0.2 0.6-0.1 1.7-0.1 1 0 1.6 0.1 0.6 0 0.9 0.2 0.3 0.1 0.4 0.4 0.1 0.3 0.1 0.7v0.7q0.5-0.4 1-0.9 0.5-0.4 1.2-0.7 0.6-0.4 1.3-0.6 0.7-0.2 1.4-0.2 1.4 0 2.6 0.5 1.1 0.5 1.9 1.4 0.8 0.9 1.3 2.1 0.4 1.2 0.3 2.7l-0.3 11.2q-0.1 1.8-0.5 3.1-0.4 1.3-1.2 2.1-0.7 0.8-1.7 1.1-1.1 0.4-2.3 0.4-1.7 0-3-0.6-1.2-0.5-2.1-1.2l-0.1 8.8q0 0.4-0.1 0.6-0.1 0.2-0.4 0.3-0.3 0.2-0.8 0.2-0.5 0-1.3 0-0.9 0-1.4 0-0.5 0-0.8-0.2-0.2-0.1-0.3-0.3-0.1-0.2-0.1-0.6zm5.7-26.6l-0.3 15.2q0.5 0.3 1.1 0.6 0.6 0.2 1.3 0.2 1.3 0 2.1-0.8 0.7-0.8 0.7-2.3l-0.3-11.2q-0.1-0.7-0.3-1.2-0.1-0.5-0.5-0.8-0.3-0.3-0.7-0.4-0.4-0.1-0.8-0.1-0.6 0-1.2 0.2-0.6 0.3-1.1 0.6zm16.2 18.2l-0.6-31.9q0-0.4 0.1-0.7 0.1-0.3 0.4-0.5 0.3-0.1 1-0.2 0.6-0.1 1.7-0.1 1.1 0 1.7 0.1 0.7 0.1 1 0.2 0.4 0.2 0.5 0.5 0.1 0.3 0.1 0.7l-0.7 31.9q0 0.4-0.1 0.6-0.1 0.2-0.3 0.3-0.3 0.2-0.8 0.2-0.5 0-1.4 0-0.8 0-1.3 0-0.5 0-0.8-0.2-0.3-0.1-0.4-0.3-0.1-0.2-0.1-0.6zm10.7-3.6v-1.1q0-1.1 0.5-2 0.5-0.8 1.2-1.5 0.8-0.6 1.8-1 1-0.5 2-0.8 1.3-0.4 2.7-0.7 1.4-0.3 2.7-0.6l-0.1-6.6q-0.1-1.1-0.6-1.6-0.5-0.5-1.6-0.5-0.5 0-0.9 0-0.5 0.1-0.8 0.4-0.3 0.2-0.5 0.6-0.1 0.4-0.2 1.1l-0.1 4.5q0 0.4-0.1 0.6-0.1 0.3-0.4 0.4-0.4 0.1-1 0.1-0.5 0.1-1.5 0.1-0.9 0-1.5-0.1-0.5 0-0.8-0.1-0.3-0.1-0.4-0.4-0.1-0.2-0.2-0.6l-0.1-4.2q-0.1-1.1 0.3-1.9 0.4-0.8 1.1-1.4 0.7-0.7 1.6-1.1 0.9-0.4 1.9-0.7 0.9-0.2 1.9-0.3 1-0.2 1.8-0.2 1.7 0 3.2 0.4 1.6 0.4 2.7 1.2 1.2 0.7 1.9 1.8 0.6 1 0.6 2.4l-0.6 17.4q0 0.4-0.1 0.6-0.1 0.2-0.4 0.3-0.3 0.2-0.8 0.2-0.5 0-1.3 0-0.8 0-1.3 0-0.5 0-0.7-0.2-0.3-0.1-0.4-0.3 0-0.2 0-0.6l-0.1-0.7q-0.5 0.4-1.1 0.8-0.7 0.3-1.4 0.6-0.7 0.3-1.5 0.5-0.8 0.2-1.7 0.2-1.4 0-2.5-0.4-1-0.4-1.8-1.1-0.7-0.6-1-1.5-0.4-1-0.4-2zm5.5-1.4v0.8q0 0.6 0.1 1 0.2 0.5 0.5 0.7 0.3 0.3 0.7 0.4 0.4 0.2 0.9 0.2 1.2 0 2-0.4 0.9-0.4 1.5-0.9l-0.2-5.2q-1.1 0.2-1.9 0.5-0.8 0.2-1.4 0.5-1 0.4-1.6 1-0.6 0.5-0.6 1.4zm17.8 5l-0.4-17.4h-1.1q-0.5 0-0.8-0.1-0.3-0.1-0.5-0.3-0.1-0.2-0.1-0.6-0.1-0.4-0.1-1 0-0.6 0.1-0.9 0-0.4 0.1-0.6 0.2-0.2 0.5-0.2 0.3-0.1 0.8-0.1h1l-0.1-5.6q0-0.4 0.1-0.7 0.1-0.3 0.4-0.5 0.3-0.1 1-0.2 0.6-0.1 1.7-0.1 1.1 0 1.7 0.1 0.7 0.1 1 0.2 0.4 0.2 0.5 0.5 0.1 0.3 0.1 0.7l-0.2 5.6h1.1q0.5 0 0.8 0.1 0.3 0 0.4 0.2 0.1 0.2 0.2 0.6 0 0.3 0 0.9 0 0.6 0 1-0.1 0.4-0.2 0.6-0.1 0.2-0.4 0.3-0.3 0.1-0.8 0.1h-1.2l-0.4 17.4q0 0.4-0.1 0.6-0.1 0.2-0.3 0.3-0.3 0.2-0.8 0.2-0.5 0-1.4 0-0.8 0-1.3 0-0.5 0-0.8-0.2-0.3-0.1-0.4-0.3-0.1-0.2-0.1-0.6zm11.5-3.9v-0.8q0-0.4 0.1-0.6 0.1-0.3 0.4-0.4 0.3-0.2 0.8-0.2 0.6-0.1 1.5-0.1 0.9 0 1.4 0.1 0.6 0 0.8 0.2 0.3 0.1 0.4 0.4 0.1 0.2 0.1 0.6v1q0 1.2 0.7 1.7 0.8 0.5 2.1 0.5 1.3 0 1.8-0.5 0.5-0.6 0.5-1.9v-1q0-0.5-0.2-0.8-0.1-0.4-0.3-0.7-0.3-0.2-0.7-0.4-0.4-0.2-1-0.4l-5.9-2.1q-1.4-0.5-2.1-1.6-0.7-1.2-0.8-2.8l-0.1-3.5q0-1.6 0.7-2.8 0.7-1.1 1.9-1.8 1.3-0.7 2.8-1 1.6-0.4 3.3-0.4 1.6 0 3.1 0.3 1.6 0.3 2.8 1 1.2 0.6 1.8 1.7 0.7 1 0.7 2.6l-0.2 4.2q0 0.4-0.1 0.6-0.1 0.3-0.4 0.4-0.3 0.1-0.9 0.1-0.5 0.1-1.4 0.1-1 0-1.6-0.1-0.6 0-0.9-0.1-0.3-0.1-0.4-0.4-0.1-0.2-0.1-0.6l-0.2-4.5q0-0.7-0.2-1.1-0.1-0.4-0.4-0.6-0.3-0.3-0.7-0.4-0.4 0-0.9 0-0.5 0-0.9 0.1-0.4 0-0.7 0.3-0.3 0.2-0.5 0.6-0.2 0.4-0.2 1.1l-0.1 4.3q-0.1 1 0.4 1.6 0.4 0.7 1.5 1l5 1.8q1 0.4 1.7 0.8 0.6 0.4 1 1 0.4 0.5 0.6 1.2 0.1 0.7 0.1 1.7l-0.1 0.9q0 1.4-0.7 2.4-0.6 0.9-1.7 1.5-1.1 0.6-2.5 0.8-1.3 0.3-2.8 0.3-1.5 0-3-0.2-1.4-0.3-2.6-0.9-1.2-0.6-1.9-1.6-0.8-1-0.8-2.6z"/>
</svg>